<svg id="visual" viewBox="0 0 1920 500" width="1920" height="500" xmlns="http://www.w3.org/2000/svg" xmlns:xlink="http://www.w3.org/1999/xlink" version="1.1"><path d="M0 332L35.5 335.7C71 339.3 142 346.7 213.2 351.5C284.3 356.3 355.7 358.7 426.8 355.3C498 352 569 343 640 338.8C711 334.7 782 335.3 853.2 332C924.3 328.7 995.7 321.3 1066.8 318C1138 314.7 1209 315.3 1280 322C1351 328.7 1422 341.3 1493.2 347.7C1564.3 354 1635.7 354 1706.8 347C1778 340 1849 326 1884.5 319L1920 312L1920 501L1884.5 501C1849 501 1778 501 1706.8 501C1635.7 501 1564.3 501 1493.2 501C1422 501 1351 501 1280 501C1209 501 1138 501 1066.8 501C995.7 501 924.3 501 853.2 501C782 501 711 501 640 501C569 501 498 501 426.8 501C355.7 501 284.3 501 213.2 501C142 501 71 501 35.5 501L0 501Z" fill="#e74c3c"></path><path d="M0 348L35.5 345.7C71 343.3 142 338.7 213.2 341.3C284.3 344 355.7 354 426.8 355.7C498 357.3 569 350.7 640 352.8C711 355 782 366 853.2 367C924.3 368 995.7 359 1066.8 354.3C1138 349.7 1209 349.3 1280 352.3C1351 355.3 1422 361.7 1493.2 364.7C1564.3 367.7 1635.7 367.3 1706.8 364.2C1778 361 1849 355 1884.5 352L1920 349L1920 501L1884.5 501C1849 501 1778 501 1706.8 501C1635.7 501 1564.3 501 1493.2 501C1422 501 1351 501 1280 501C1209 501 1138 501 1066.8 501C995.7 501 924.3 501 853.2 501C782 501 711 501 640 501C569 501 498 501 426.8 501C355.7 501 284.3 501 213.2 501C142 501 71 501 35.5 501L0 501Z" fill="#eb5837"></path><path d="M0 360L35.5 363.2C71 366.3 142 372.7 213.2 373.5C284.3 374.3 355.7 369.7 426.8 372.8C498 376 569 387 640 388.3C711 389.7 782 381.3 853.2 378.8C924.3 376.3 995.7 379.7 1066.8 383.7C1138 387.7 1209 392.3 1280 388.5C1351 384.7 1422 372.3 1493.2 368.3C1564.3 364.3 1635.7 368.7 1706.8 374.2C1778 379.7 1849 386.3 1884.5 389.7L1920 393L1920 501L1884.5 501C1849 501 1778 501 1706.8 501C1635.7 501 1564.3 501 1493.2 501C1422 501 1351 501 1280 501C1209 501 1138 501 1066.8 501C995.7 501 924.3 501 853.2 501C782 501 711 501 640 501C569 501 498 501 426.8 501C355.7 501 284.3 501 213.2 501C142 501 71 501 35.5 501L0 501Z" fill="#ef6331"></path><path d="M0 415L35.5 414.8C71 414.7 142 414.3 213.2 413.2C284.3 412 355.7 410 426.8 406C498 402 569 396 640 396.5C711 397 782 404 853.2 403.2C924.3 402.3 995.7 393.7 1066.8 391.5C1138 389.3 1209 393.7 1280 399.2C1351 404.7 1422 411.3 1493.2 409.8C1564.3 408.3 1635.7 398.7 1706.8 396.3C1778 394 1849 399 1884.5 401.5L1920 404L1920 501L1884.5 501C1849 501 1778 501 1706.8 501C1635.7 501 1564.3 501 1493.2 501C1422 501 1351 501 1280 501C1209 501 1138 501 1066.8 501C995.7 501 924.3 501 853.2 501C782 501 711 501 640 501C569 501 498 501 426.8 501C355.7 501 284.3 501 213.2 501C142 501 71 501 35.5 501L0 501Z" fill="#f16e2b"></path><path d="M0 397L35.5 397.5C71 398 142 399 213.2 404.3C284.3 409.7 355.7 419.3 426.8 419.5C498 419.7 569 410.3 640 411.2C711 412 782 423 853.2 428.5C924.3 434 995.7 434 1066.8 434C1138 434 1209 434 1280 428.3C1351 422.7 1422 411.3 1493.2 409C1564.3 406.7 1635.7 413.3 1706.8 418C1778 422.7 1849 425.3 1884.5 426.7L1920 428L1920 501L1884.5 501C1849 501 1778 501 1706.8 501C1635.7 501 1564.3 501 1493.2 501C1422 501 1351 501 1280 501C1209 501 1138 501 1066.8 501C995.7 501 924.3 501 853.2 501C782 501 711 501 640 501C569 501 498 501 426.8 501C355.7 501 284.3 501 213.2 501C142 501 71 501 35.5 501L0 501Z" fill="#f37a25"></path><path d="M0 433L35.5 435.3C71 437.7 142 442.3 213.2 445.8C284.3 449.3 355.7 451.7 426.8 451.8C498 452 569 450 640 444.5C711 439 782 430 853.2 427.7C924.3 425.3 995.7 429.7 1066.8 432C1138 434.3 1209 434.7 1280 434.8C1351 435 1422 435 1493.2 432.8C1564.3 430.7 1635.7 426.3 1706.8 429C1778 431.7 1849 441.3 1884.5 446.2L1920 451L1920 501L1884.5 501C1849 501 1778 501 1706.8 501C1635.7 501 1564.3 501 1493.2 501C1422 501 1351 501 1280 501C1209 501 1138 501 1066.8 501C995.7 501 924.3 501 853.2 501C782 501 711 501 640 501C569 501 498 501 426.8 501C355.7 501 284.3 501 213.2 501C142 501 71 501 35.5 501L0 501Z" fill="#f4851f"></path><path d="M0 460L35.5 459.3C71 458.7 142 457.3 213.2 455.7C284.3 454 355.7 452 426.8 450C498 448 569 446 640 447.5C711 449 782 454 853.2 458.3C924.3 462.7 995.7 466.3 1066.8 466.5C1138 466.7 1209 463.3 1280 459.2C1351 455 1422 450 1493.2 448.7C1564.3 447.3 1635.7 449.7 1706.8 451C1778 452.3 1849 452.7 1884.5 452.8L1920 453L1920 501L1884.5 501C1849 501 1778 501 1706.8 501C1635.7 501 1564.3 501 1493.2 501C1422 501 1351 501 1280 501C1209 501 1138 501 1066.8 501C995.7 501 924.3 501 853.2 501C782 501 711 501 640 501C569 501 498 501 426.8 501C355.7 501 284.3 501 213.2 501C142 501 71 501 35.5 501L0 501Z" fill="#f49118"></path><path d="M0 492L35.5 489.2C71 486.3 142 480.7 213.2 478.8C284.3 477 355.7 479 426.8 481.5C498 484 569 487 640 484.8C711 482.7 782 475.3 853.2 472.2C924.3 469 995.7 470 1066.8 472.2C1138 474.3 1209 477.7 1280 479.3C1351 481 1422 481 1493.2 478.7C1564.3 476.3 1635.7 471.7 1706.8 470.3C1778 469 1849 471 1884.5 472L1920 473L1920 501L1884.5 501C1849 501 1778 501 1706.8 501C1635.7 501 1564.3 501 1493.2 501C1422 501 1351 501 1280 501C1209 501 1138 501 1066.8 501C995.7 501 924.3 501 853.2 501C782 501 711 501 640 501C569 501 498 501 426.8 501C355.7 501 284.3 501 213.2 501C142 501 71 501 35.5 501L0 501Z" fill="#f39c12"></path></svg>