<svg id="visual" viewBox="0 0 900 500" width="900" height="500" xmlns="http://www.w3.org/2000/svg" xmlns:xlink="http://www.w3.org/1999/xlink" version="1.1"><rect width="900" height="500" fill="#303030"></rect><g><g transform="translate(384 220)"><path d="M68.3 -31.2C84 -12.1 89.3 21.3 76.2 46.3C63.1 71.3 31.5 88 3.3 86.1C-25 84.2 -49.9 63.7 -59.9 40.5C-69.9 17.2 -65 -8.7 -52.5 -25.9C-40.1 -43.2 -20 -51.6 3.1 -53.4C26.2 -55.2 52.5 -50.3 68.3 -31.2Z" fill="#8edab9"></path></g><g transform="translate(833 487)"><path d="M58.4 -35.3C72.2 -9.7 77.6 19.1 66.5 36.3C55.3 53.5 27.7 59.2 4.1 56.8C-19.4 54.4 -38.9 44 -50.4 26.6C-61.9 9.1 -65.6 -15.4 -55.9 -38.6C-46.1 -61.7 -23.1 -83.4 -0.4 -83.2C22.3 -83 44.5 -60.8 58.4 -35.3Z" fill="#8edab9"></path></g><g transform="translate(770 148)"><path d="M44.3 -25.8C55.1 -7 59.7 15.1 51.4 33.2C43 51.3 21.5 65.4 0.4 65.2C-20.7 64.9 -41.4 50.4 -55.5 28.9C-69.7 7.5 -77.4 -20.8 -67 -39.4C-56.7 -57.9 -28.3 -66.8 -5.8 -63.5C16.8 -60.1 33.6 -44.6 44.3 -25.8Z" fill="#8edab9"></path></g><g transform="translate(93 86)"><path d="M45.4 -25.9C54.2 -11.1 53.3 9.6 44.2 24.4C35 39.1 17.5 47.9 -5 50.8C-27.4 53.6 -54.8 50.5 -67.4 33.8C-80.1 17 -78 -13.4 -64.3 -31.1C-50.6 -48.8 -25.3 -53.8 -3.5 -51.8C18.3 -49.8 36.7 -40.8 45.4 -25.9Z" fill="#8edab9"></path></g><g transform="translate(195 440)"><path d="M63 -36.5C71 -22.4 59.6 2.7 45.9 19.8C32.2 36.9 16.1 46 -0.8 46.5C-17.6 46.9 -35.3 38.7 -45.8 23.5C-56.3 8.2 -59.6 -14.1 -50.8 -28.6C-42 -43.1 -21 -49.7 3.2 -51.6C27.5 -53.5 54.9 -50.5 63 -36.5Z" fill="#8edab9"></path></g></g></svg>